<?xml version="1.0" encoding="UTF-8"?>
<svg width="128px" height="128px" viewBox="0 0 128 128" version="1.1" xmlns="http://www.w3.org/2000/svg" xmlns:xlink="http://www.w3.org/1999/xlink">
    <title>EmptyBox_ico</title>
    <g id="12.3" stroke="none" stroke-width="1" fill="none" fill-rule="evenodd">
        <g id="List-without-suppliers" transform="translate(-124, -320)" stroke="#E8E6DF">
            <g id="Group-2" transform="translate(107, 320)">
                <g id="Group" transform="translate(25, 20)">
                    <g id="Group-4" fill="#E8E6DF" stroke-width="1.16928">
                        <path d="M11.4129656,58.9916708 L11.4129656,71.0362742 C11.4129656,73.4069717 12.9876492,75.4963636 15.2887751,76.1770802 L54.4383663,87.7728831 C55.456865,88.0757056 56.543135,88.0757056 57.5616337,87.7728831 L96.7112249,76.1770802 C99.0114908,75.4968785 100.587034,73.4070189 100.587034,71.0362742 L100.587034,53.8637491 C100.587034,53.270769 100.100149,52.7900637 99.4995458,52.7900637 C98.8989424,52.7900637 98.4120571,53.270769 98.4120571,53.8637491 L98.4120571,71.0362742 C98.4120571,72.4578338 97.465942,73.7118984 96.0870064,74.1220462 L56.9374152,85.7178491 C56.3258206,85.8982025 55.6741794,85.8982025 55.0625848,85.7178491 L15.9129936,74.1220462 C14.5336663,73.7120521 13.5891258,72.4584723 13.5879429,71.0362742 L13.5879429,58.9916708 C13.5879429,58.3986907 13.1010576,57.9179854 12.5004542,57.9179854 C11.8998509,57.9179854 11.4129656,58.3986907 11.4129656,58.9916708 L11.4129656,58.9916708 Z" id="Path"></path>
                        <path d="M8.88129204,34.6619585 L0.559828935,46.8418463 C-0.0144856421,47.6797219 -0.156086571,48.7355394 0.177565228,49.6921153 C0.511217026,50.6486911 1.28124138,51.3945562 2.25631122,51.7056414 L41.3950275,64.261319 C42.7771976,64.7046576 44.2897711,64.1925683 45.1055388,63.0051071 L56.9004406,45.8218451 C57.0921498,45.5422822 57.1395111,45.1899741 57.028302,44.8707167 C56.917093,44.5514593 56.6602667,44.3024381 56.3349465,44.1984327 L12.8354007,30.2619955 C12.2755306,30.1151092 11.6971213,30.4264055 11.518801,30.9705815 C11.3404807,31.5147574 11.6245923,32.1015628 12.1655077,32.3062926 L54.2882929,45.8003714 L43.3046576,61.800432 C43.0327983,62.1967708 42.5280371,62.3675601 42.0670955,62.2191693 L2.9283792,49.6634916 C2.60375416,49.5592957 2.34751788,49.3106582 2.23637303,48.9920072 C2.12522818,48.6733561 2.17207311,48.3216711 2.36288511,48.0422266 L10.6843482,35.8623388 C10.9093789,35.54442 10.9432504,35.1313904 10.7729547,34.7818696 C10.602659,34.4323488 10.2546724,34.2006776 9.86263523,34.1758266 C9.47059808,34.1509756 9.0954613,34.3368087 8.88129204,34.6619585 L8.88129204,34.6619585 Z" id="Path"></path>
                        <path d="M92.9767889,32.2440189 L55.6650535,44.1984327 C55.2855777,44.3086443 54.9966391,44.613597 54.9105385,44.994766 C54.8244379,45.3759351 54.9547549,45.7732027 55.2508397,46.0321646 C55.5469246,46.2911264 55.962079,46.3709392 56.3349465,46.2405824 L93.6466819,34.288316 C94.2184563,34.1056781 94.5320104,33.4999893 94.3470245,32.9354723 C94.1620387,32.3709552 93.5485633,32.061381 92.9767889,32.2440189 Z" id="Path"></path>
                        <path d="M58.1793272,50.3077029 L66.8944612,63.0051071 C67.7100777,64.1926032 69.2216869,64.7036774 70.6049725,64.261319 L109.743689,51.7056414 C110.718759,51.3945562 111.488783,50.6486911 111.822435,49.6921153 C112.156087,48.7355394 112.014486,47.6797219 111.440171,46.8418463 L100.402161,30.6828802 C100.064843,30.1921725 99.3894067,30.062638 98.8905521,30.3929851 C98.3935359,30.7260224 98.2623362,31.3928851 98.5969302,31.8854079 L109.637115,48.0422266 C109.826069,48.3221197 109.871862,48.6730528 109.760931,48.9910906 C109.65,49.3091284 109.395062,49.557813 109.071621,49.6634916 L69.9329045,62.2191693 C69.4719629,62.3675601 68.9672017,62.1967708 68.6953424,61.800432 L59.9802084,49.1030278 C59.6432699,48.6120403 58.9669863,48.483692 58.4696867,48.8163538 C57.9723871,49.1490156 57.8423887,49.8167154 58.1793272,50.3077029 L58.1793272,50.3077029 Z M19.4429817,30.1825428 L56.3371215,18.3247606 C56.6611868,18.2184759 56.9162236,17.9686207 57.0263835,17.6495021 C57.1365434,17.3303835 57.089138,16.9787586 56.8982656,16.6992009 L46.3692006,1.40992003 C45.5532353,0.225356775 44.0429464,-0.284809016 42.6630393,0.158002793 L3.522148,12.7136805 C2.54876946,13.0275742 1.78078067,13.7739174 1.44749797,14.7298569 C1.11421527,15.6857964 1.25420446,16.7407157 1.82566572,17.5796229 L11.5978387,31.8854079 C11.9437879,32.3516503 12.6010442,32.4647107 13.0863164,32.1414539 C13.5715885,31.8181971 13.7114551,31.1741453 13.4030698,30.6828802 L3.62872189,16.3792426 C3.43794992,16.0994513 3.39112061,15.7475232 3.50222148,15.4285764 C3.61332236,15.1096296 3.8694925,14.860585 4.19421598,14.7558302 L43.3351073,2.20015252 C43.7949146,2.05240438 44.2983031,2.22215408 44.5704944,2.61674248 L54.2861179,16.7249693 L18.7709138,28.1403931 C18.206123,28.3282972 17.8997466,28.9300219 18.08392,29.4896522 C18.2680934,30.0492824 18.8741897,30.3582886 19.4429817,30.1825428 L19.4429817,30.1825428 Z" id="Shape"></path>
                        <path d="M55.6628785,18.3247606 L99.1624243,32.3041452 C99.6240139,32.4536138 100.130027,32.2827014 100.402161,31.8854079 L110.174334,17.5796229 C110.745796,16.7407157 110.885785,15.6857964 110.552502,14.7298569 C110.219219,13.7739174 109.451231,13.0275742 108.477852,12.7136805 L69.3369607,0.158002793 C67.9570536,-0.284809016 66.4467647,0.225356775 65.6307994,1.40992003 L58.0227289,12.455996 C57.6845892,12.9463905 57.813127,13.6145709 58.3098259,13.9484187 C58.8065249,14.2822664 59.4832954,14.1553603 59.8214351,13.6649658 L67.4295056,2.61674248 C67.7016969,2.22215408 68.2050854,2.05240438 68.6648927,2.20015252 L107.805784,14.7558302 C108.129326,14.8620612 108.384204,15.1111522 108.495092,15.4294886 C108.60598,15.747825 108.560199,16.0990047 108.371278,16.3792426 L99.0558504,30.0129005 L56.3371215,16.2826109 C55.7659477,16.0987871 55.1519854,16.4069193 54.9657984,16.9708433 C54.7796113,17.5347674 55.0917047,18.1409368 55.6628785,18.3247606 L55.6628785,18.3247606 Z" id="Path"></path>
                    </g>
                    <line x1="59" y1="57.6888889" x2="59" y2="86.0444444" id="Line" stroke-width="3.11808" stroke-linecap="round" stroke-linejoin="round"></line>
                </g>
            </g>
        </g>
    </g>
</svg>